<svg width="21" height="20" viewBox="0 0 21 20" fill="none" xmlns="http://www.w3.org/2000/svg">
<path d="M6.42676 9.23904C6.33498 9.11922 6.19949 9.04064 6.04991 9.02049C5.90034 9.00034 5.74888 9.04026 5.62867 9.13152C5.55795 9.18729 5.50091 9.25848 5.46189 9.33966L0.561756 19.1427C0.492353 19.2816 0.480953 19.4424 0.530062 19.5897C0.579171 19.7371 0.68477 19.8589 0.823647 19.9284C0.904824 19.9694 0.994569 19.9907 1.08554 19.9904H7.91265C8.022 19.9932 8.12979 19.964 8.22282 19.9065C8.31585 19.849 8.39009 19.7655 8.43643 19.6665C9.90992 16.623 9.01673 11.9958 6.42676 9.23904Z" fill="url(#paint0_linear_1_2181)"/>
<path d="M10.0284 0.318096C8.80686 2.19786 8.09495 4.36289 7.96253 6.60078C7.8301 8.83867 8.28172 11.0726 9.27306 13.0833L12.5646 19.6664C12.6133 19.7637 12.688 19.8455 12.7805 19.9027C12.873 19.9599 12.9796 19.9903 13.0884 19.9903H19.9141C19.9911 19.9905 20.0674 19.9755 20.1385 19.9461C20.2097 19.9167 20.2743 19.8736 20.3288 19.8191C20.3832 19.7647 20.4264 19.7001 20.4557 19.6289C20.4851 19.5577 20.5001 19.4815 20.5 19.4045C20.5 19.3137 20.4793 19.2241 20.4393 19.1426L11.025 0.31534C10.9803 0.220998 10.9097 0.141281 10.8215 0.0854577C10.7333 0.0296347 10.6311 0 10.5267 0C10.4223 0 10.3201 0.0296347 10.2319 0.0854577C10.1436 0.141281 10.0731 0.220998 10.0284 0.31534V0.318096Z" fill="#2684FF"/>
<defs>
<linearGradient id="paint0_linear_1_2181" x1="9.12424" y1="10.7373" x2="3.94981" y2="19.6995" gradientUnits="userSpaceOnUse">
<stop stop-color="#0052CC"/>
<stop offset="0.92" stop-color="#2684FF"/>
</linearGradient>
</defs>
</svg>
