<svg width="15" height="15" viewBox="0 0 15 15" fill="none" xmlns="http://www.w3.org/2000/svg">
<path d="M7.5 1.40601C4.13994 1.40601 1.40625 4.1397 1.40625 7.49975C1.40625 10.8598 4.13994 13.5935 7.5 13.5935C10.8601 13.5935 13.5937 10.8598 13.5937 7.49975C13.5937 4.1397 10.8601 1.40601 7.5 1.40601ZM10.6714 5.45747L6.73389 10.145C6.69069 10.1964 6.63695 10.238 6.57629 10.2668C6.51564 10.2957 6.44949 10.3112 6.38232 10.3123H6.37441C6.30871 10.3122 6.24375 10.2984 6.18374 10.2716C6.12373 10.2449 6.07001 10.2058 6.02607 10.157L4.33857 8.28198C4.29572 8.23653 4.26238 8.18296 4.24052 8.12444C4.21866 8.06592 4.20872 8.00361 4.21128 7.94119C4.21384 7.87877 4.22886 7.8175 4.25544 7.76096C4.28202 7.70443 4.31964 7.65377 4.36608 7.61198C4.41251 7.57019 4.46684 7.53811 4.52585 7.51761C4.58487 7.49712 4.64738 7.48862 4.70973 7.49263C4.77207 7.49664 4.83298 7.51308 4.88889 7.54096C4.94479 7.56885 4.99455 7.60763 5.03525 7.65503L6.36211 9.12925L9.95361 4.85454C10.0342 4.7614 10.1482 4.7037 10.2709 4.69392C10.3937 4.68414 10.5153 4.72306 10.6096 4.80226C10.7039 4.88147 10.7633 4.99461 10.7748 5.11721C10.7864 5.23981 10.7492 5.36204 10.6714 5.45747Z" fill="#3261AD"/>
</svg>
