<svg width="24" height="23" viewBox="0 0 24 23" fill="none" xmlns="http://www.w3.org/2000/svg">
<path d="M12 2.3584C6.952 2.3584 2.85938 6.45102 2.85938 11.499C2.85938 16.547 6.952 20.6396 12 20.6396C17.048 20.6396 21.1406 16.547 21.1406 11.499C21.1406 6.45102 17.048 2.3584 12 2.3584Z" fill="white" stroke="#0F2144" stroke-width="0.75" stroke-miterlimit="10"/>
<path d="M12.0001 2.3584C9.44824 2.3584 7.04883 6.45102 7.04883 11.499C7.04883 16.547 9.44824 20.6396 12.0001 20.6396C14.552 20.6396 16.9515 16.547 16.9515 11.499C16.9515 6.45102 14.552 2.3584 12.0001 2.3584Z" fill="white" stroke="#0F2144" stroke-width="0.75" stroke-miterlimit="10"/>
<path d="M5.90625 5.40552C7.58672 6.59863 9.70224 7.31011 12.0001 7.31011C14.298 7.31011 16.4136 6.59863 18.094 5.40552" fill="white"/>
<path d="M5.90625 5.40552C7.58672 6.59863 9.70224 7.31011 12.0001 7.31011C14.298 7.31011 16.4136 6.59863 18.094 5.40552" stroke="#0F2144" stroke-width="0.75" stroke-linecap="round" stroke-linejoin="round"/>
<path d="M18.094 17.5945C16.4136 16.4014 14.298 15.6899 12.0001 15.6899C9.70224 15.6899 7.58672 16.4014 5.90625 17.5945" stroke="#0F2144" stroke-width="0.75" stroke-linecap="round" stroke-linejoin="round"/>
<path d="M12 2.3584V20.6396" stroke="#0F2144" stroke-width="0.75" stroke-miterlimit="10"/>
<path d="M21.1406 11.499H2.85938" stroke="#0F2144" stroke-width="0.75" stroke-miterlimit="10"/>
</svg>
