<svg width="13" height="13" viewBox="0 0 13 13" fill="none" xmlns="http://www.w3.org/2000/svg">
<path d="M11.7136 3.19288C11.6855 3.13817 11.6448 3.09088 11.595 3.05486C11.5451 3.01884 11.4874 2.9951 11.4266 2.98559C11.3659 2.97607 11.3037 2.98104 11.2452 3.00009C11.1867 3.01914 11.1336 3.05174 11.0901 3.09522L9.59006 4.5962C9.51643 4.66876 9.4172 4.70944 9.31382 4.70944C9.21044 4.70944 9.11121 4.66876 9.03757 4.5962L8.38914 3.94678C8.35285 3.91051 8.32407 3.86744 8.30444 3.82005C8.2848 3.77265 8.27469 3.72185 8.27469 3.67054C8.27469 3.61924 8.2848 3.56843 8.30444 3.52103C8.32407 3.47364 8.35285 3.43057 8.38914 3.39429L9.88279 1.9004C9.92756 1.85563 9.96079 1.80064 9.97959 1.74018C9.9984 1.67972 10.0022 1.61559 9.99074 1.55332C9.97926 1.49106 9.95281 1.43251 9.91367 1.38273C9.87454 1.33296 9.82389 1.29344 9.76609 1.26759C8.63792 0.763192 7.22971 1.02638 6.34177 1.90772C5.58738 2.65675 5.36253 3.82716 5.72532 5.1189C5.74488 5.18779 5.74499 5.26074 5.72565 5.32969C5.7063 5.39863 5.66824 5.46088 5.6157 5.50953L1.55125 9.22169C1.39291 9.36385 1.26519 9.53679 1.17589 9.72994C1.08658 9.92309 1.03756 10.1324 1.03182 10.3451C1.02608 10.5578 1.06373 10.7695 1.14248 10.9672C1.22123 11.1649 1.33943 11.3445 1.48987 11.495C1.6403 11.6455 1.81982 11.7637 2.01748 11.8426C2.21513 11.9214 2.42677 11.9592 2.6395 11.9535C2.85222 11.9479 3.06156 11.8989 3.25475 11.8097C3.44794 11.7205 3.62093 11.5929 3.76316 11.4346L7.51511 7.36109C7.56306 7.30922 7.62426 7.27142 7.6921 7.25176C7.75995 7.2321 7.83187 7.23133 7.90012 7.24952C8.26788 7.35028 8.64723 7.40257 9.02854 7.40504C9.84397 7.40504 10.5595 7.14112 11.0757 6.63258C12.0315 5.69093 12.1772 4.09376 11.7136 3.19288ZM2.67893 11.1672C2.51814 11.1848 2.35587 11.152 2.2145 11.0734C2.07314 10.9948 1.95966 10.8743 1.88972 10.7284C1.81978 10.5826 1.79684 10.4186 1.82405 10.2592C1.85126 10.0997 1.92729 9.95267 2.04164 9.83828C2.15599 9.72388 2.30303 9.6478 2.46246 9.62054C2.62189 9.59327 2.78585 9.61616 2.93172 9.68605C3.07759 9.75593 3.19817 9.86937 3.27682 10.0107C3.35548 10.152 3.38832 10.3143 3.37083 10.4751C3.35158 10.652 3.2725 10.8171 3.14669 10.9429C3.02087 11.0688 2.85585 11.1479 2.67893 11.1672Z" fill="white"/>
</svg>
