<svg width="177" height="43" viewBox="0 0 177 43" fill="none" xmlns="http://www.w3.org/2000/svg">
<g id="Layer_1" clip-path="url(#clip0_1_1036)">
<path id="Vector" d="M73.2403 16.779C71.2275 16.779 69.6153 16.1918 68.4037 15.0175C67.192 13.8431 66.5874 12.28 66.5899 10.3282C66.5958 8.40542 67.2971 6.54967 68.5641 5.10342C69.2628 4.321 70.1255 3.70234 71.0907 3.29154C72.0938 2.86662 73.1736 2.65258 74.2629 2.6627C76.2744 2.6627 77.8867 3.2424 79.0995 4.4018C80.3124 5.56121 80.9176 7.09817 80.9152 9.01268C80.9225 9.97018 80.766 10.9219 80.4524 11.8266C80.1551 12.6826 79.6986 13.4746 79.107 14.161C78.3931 14.9987 77.5004 15.6657 76.4946 16.1128C75.4688 16.5614 74.3599 16.7884 73.2403 16.779ZM74.1024 5.10528C73.4754 5.09192 72.853 5.21615 72.2792 5.46923C71.7053 5.7223 71.1939 6.09807 70.7809 6.57009C69.9002 7.54538 69.4592 8.77321 69.4579 10.2536C69.4579 11.4976 69.8144 12.4928 70.5272 13.2392C71.24 13.9856 72.1929 14.3544 73.3859 14.3457C74.0148 14.3574 74.6385 14.2296 75.2122 13.9715C75.7858 13.7133 76.2952 13.3313 76.7036 12.8529C77.5881 11.8577 78.0303 10.628 78.0303 9.16383C78.0303 7.91983 77.6758 6.93334 76.9667 6.20436C76.2576 5.47537 75.3029 5.10902 74.1024 5.10528Z" fill="#3261AD"/>
<path id="Vector_2" d="M85.179 16.4208H82.3539L84.1247 2.9856H86.7222C87.9873 2.9856 88.8836 3.05277 89.4111 3.18712C89.9159 3.31173 90.3881 3.54336 90.7956 3.86635C91.2313 4.20361 91.5768 4.64335 91.8014 5.14642C92.0389 5.68403 92.1592 6.26609 92.1541 6.85381C92.1649 7.54141 92.0288 8.22341 91.7548 8.85415C91.4952 9.44406 91.0893 9.95789 90.5755 10.3469C90.1265 10.6942 89.6087 10.9417 89.0565 11.0728C88.2163 11.2443 87.3591 11.3182 86.502 11.293H85.8582L85.179 16.4208ZM86.1531 8.99597H86.5841C87.6477 8.99597 88.3711 8.84358 88.7543 8.5388C89.1368 8.23278 89.3271 7.70843 89.3271 6.9695C89.3271 6.34439 89.1685 5.90775 88.8513 5.6633C88.5341 5.41885 87.9015 5.2901 86.9592 5.2901H86.6382L86.1531 8.99597Z" fill="#3261AD"/>
<path id="Vector_3" d="M95.1005 16.4208L96.5597 5.33488H93.0721L93.3838 2.9856H102.919L102.617 5.33488H99.368L97.9181 16.4208H95.1005Z" fill="#3261AD"/>
<path id="Vector_4" d="M103.01 16.4208L104.774 2.9856H107.591L105.828 16.4208H103.01Z" fill="#3261AD"/>
<path id="Vector_5" d="M108.793 16.4208L110.564 2.9856H113.382L111.913 14.036H116.578L116.266 16.4208H108.793Z" fill="#152F64"/>
<path id="Vector_6" d="M117.961 16.4208L119.732 2.9856H127.716L127.421 5.36101H122.21L121.823 8.37273H127.016L126.714 10.6847H121.502L121.062 14.0528H126.276L125.955 16.4208H117.961Z" fill="#152F64"/>
<path id="Vector_7" d="M127.449 16.4208L134.408 2.9856H137.472L140.702 16.4208H137.716L137.147 13.5303H132.04L130.594 16.4208H127.449ZM136.628 11.3322L135.984 8.16C135.925 7.83532 135.869 7.44346 135.82 6.98069C135.772 6.51793 135.725 5.96746 135.682 5.32369C135.548 5.81445 135.404 6.26788 135.251 6.68773C135.098 7.10758 134.936 7.49571 134.764 7.85771L133.131 11.3322H136.628Z" fill="#152F64"/>
<path id="Vector_8" d="M145.007 16.4208H142.18L143.95 2.9856H146.749C147.919 2.9856 148.762 3.0478 149.278 3.1722C149.771 3.28364 150.235 3.49653 150.642 3.7973C151.063 4.09991 151.404 4.50176 151.633 4.96728C151.863 5.44685 151.979 5.97303 151.972 6.50486C151.972 7.53365 151.683 8.38268 151.105 9.05195C150.526 9.72122 149.696 10.1753 148.614 10.4141L151.661 16.4245H148.576L145.815 10.2574L145.007 16.4208ZM145.997 8.79444H146.412C147.475 8.79444 148.199 8.64952 148.582 8.35966C148.955 8.06857 149.155 7.56848 149.155 6.86687C149.155 6.26104 148.994 5.83559 148.673 5.59053C148.352 5.34546 147.723 5.22106 146.787 5.21733H146.466L145.997 8.79444Z" fill="#152F64"/>
<path id="Vector_9" d="M153.139 16.4208L154.909 2.9856H157.837L161.993 9.91404C162.441 10.6729 162.759 11.2451 162.948 11.6308C163.125 11.9842 163.278 12.3489 163.407 12.7224C163.432 12.0854 163.462 11.5256 163.499 11.043C163.535 10.5603 163.571 10.1765 163.609 9.89165L164.542 2.98746H167.184L165.404 16.4226H162.679L158.054 8.60411C157.766 8.12641 157.533 7.70843 157.356 7.34643C157.188 7.00849 157.038 6.66221 156.906 6.30893V6.74185C156.906 7.20088 156.893 7.64312 156.869 8.0723C156.844 8.50148 156.807 8.90453 156.759 9.28333L155.758 16.4226L153.139 16.4208Z" fill="#152F64"/>
<path id="Vector_10" d="M66.338 38.975L68.1107 25.5398H76.0934L75.8005 27.9077H70.5869L70.1932 30.9251H75.3881L75.0839 33.237H69.8815L69.4412 36.6051H74.6529L74.3319 38.9731L66.338 38.975Z" fill="#0F2144"/>
<path id="Vector_11" d="M77.0675 38.9751L78.8383 25.5399H81.6559C82.7838 25.5161 83.9121 25.5666 85.0334 25.6911C85.6103 25.767 86.1712 25.9358 86.6941 26.1911C87.6297 26.68 88.3877 27.4511 88.8605 28.3949C89.3581 29.3664 89.6069 30.5258 89.6069 31.8731C89.637 33.0292 89.4061 34.1773 88.9314 35.2319C88.4427 36.2125 87.7158 37.0549 86.8173 37.6819C86.145 38.1601 85.3836 38.4983 84.5781 38.6765C83.7247 38.8756 82.4017 38.9751 80.6091 38.9751H77.0637H77.0675ZM80.1874 36.5717H80.3516C80.9948 36.5953 81.4538 36.6071 81.7287 36.6071C82.5073 36.6308 83.2854 36.546 84.0407 36.3552C84.5773 36.2035 85.0649 35.914 85.4551 35.5155C85.8874 35.0523 86.2117 34.4992 86.4049 33.8958C86.631 33.1918 86.7413 32.4557 86.7314 31.7164C86.7314 30.3952 86.4515 29.4423 85.8917 28.8576C85.3319 28.273 84.4095 27.9806 83.1245 27.9806H81.3163L80.1874 36.5717Z" fill="#0F2144"/>
<path id="Vector_12" d="M95.4774 25.5398L94.4586 33.1288C94.4324 33.3247 94.4157 33.5374 94.4026 33.7632C94.3895 33.989 94.3839 34.2372 94.3839 34.5096C94.3839 35.3369 94.5873 35.9626 94.9941 36.3868C95.4009 36.811 95.993 37.0238 96.7705 37.025C97.2743 37.036 97.7728 36.9205 98.2204 36.6891C98.6479 36.4548 99.0058 36.1117 99.2579 35.6945C99.5988 35.131 99.8768 34.0357 100.092 32.4085C100.105 32.3171 100.114 32.2518 100.12 32.2219L101.019 25.5491H103.8L102.809 33.1027C102.711 34.0377 102.523 34.9613 102.249 35.8606C102.051 36.4331 101.758 36.9681 101.381 37.443C100.861 38.0896 100.18 38.5894 99.4072 38.8929C98.5065 39.2252 97.5511 39.3841 96.5914 39.3612C94.8958 39.3612 93.6319 38.9787 92.7997 38.2136C91.9675 37.4486 91.552 36.2954 91.5532 34.7541C91.5532 34.5339 91.5775 34.1607 91.6297 33.6345C91.682 33.1083 91.7566 32.4589 91.8555 31.6882L92.6635 25.5491L95.4774 25.5398Z" fill="#0F2144"/>
<path id="Vector_13" d="M115.649 38.4898C115.07 38.7754 114.457 38.9879 113.826 39.1224C113.142 39.2657 112.445 39.3364 111.747 39.3333C109.776 39.3333 108.19 38.7461 106.987 37.5718C105.784 36.3974 105.183 34.8555 105.184 32.946C105.18 31.9717 105.351 31.0046 105.69 30.091C106.02 29.1999 106.511 28.3775 107.14 27.6652C107.832 26.8779 108.693 26.2567 109.659 25.8477C110.672 25.4246 111.76 25.2125 112.857 25.2245C113.631 25.2152 114.402 25.3125 115.149 25.5137C115.866 25.7216 116.548 26.0361 117.171 26.4467L116.785 29.074C116.177 28.6225 115.51 28.2576 114.802 27.9899C114.179 27.7612 113.521 27.6431 112.857 27.6409C111.443 27.6409 110.287 28.1242 109.388 29.0908C108.49 30.0574 108.04 31.2964 108.039 32.8079C108.039 34.0519 108.394 35.0402 109.103 35.773C109.812 36.5057 110.767 36.8727 111.967 36.8739C112.699 36.8801 113.428 36.7731 114.128 36.5567C114.796 36.3437 115.422 36.016 115.977 35.5882L115.649 38.4898Z" fill="#0F2144"/>
<path id="Vector_14" d="M116.942 38.975L123.898 25.5398H126.964L130.194 38.975H127.209L126.649 36.0845H121.536L120.086 38.975H116.942ZM126.115 33.8827L125.473 30.7105C125.412 30.3858 125.358 29.9939 125.307 29.5312C125.257 29.0684 125.214 28.5179 125.171 27.8742C125.037 28.3649 124.893 28.8184 124.74 29.2382C124.587 29.658 124.425 30.0462 124.253 30.4082L122.618 33.8864L126.115 33.8827Z" fill="#0F2144"/>
<path id="Vector_15" d="M133.057 38.975L134.512 27.8891H131.03L131.34 25.5398H140.875L140.571 27.8891H137.324L135.874 38.975H133.057Z" fill="#0F2144"/>
<path id="Vector_16" d="M140.969 38.975L142.73 25.5398H145.548L143.786 38.975H140.969Z" fill="#0F2144"/>
<path id="Vector_17" d="M153.652 39.3332C151.638 39.3332 150.025 38.7461 148.815 37.5717C147.605 36.3974 146.999 34.8343 146.998 32.8825C147.003 30.9597 147.705 29.1039 148.972 27.6577C149.669 26.877 150.53 26.2591 151.493 25.8477C152.496 25.4229 153.576 25.2089 154.665 25.2188C156.676 25.2188 158.289 25.7985 159.502 26.9579C160.714 28.1174 161.32 29.6543 161.319 31.5688C161.326 32.5264 161.169 33.4781 160.854 34.3827C160.558 35.2352 160.104 36.0245 159.517 36.7096C158.802 37.5463 157.909 38.2131 156.904 38.6615C155.879 39.1118 154.771 39.3407 153.652 39.3332ZM154.514 27.6596C153.887 27.6462 153.264 27.7704 152.691 28.0235C152.117 28.2766 151.605 28.6523 151.192 29.1244C150.312 30.1009 149.871 31.3287 149.871 32.8078C149.871 34.0518 150.227 35.047 150.939 35.7934C151.65 36.5398 152.603 36.9074 153.797 36.8962C154.426 36.9079 155.05 36.7801 155.624 36.522C156.197 36.2639 156.707 35.8819 157.115 35.4034C157.999 34.4082 158.442 33.1786 158.442 31.7144C158.442 30.4704 158.087 29.4839 157.378 28.7549C156.669 28.0259 155.714 27.6608 154.514 27.6596Z" fill="#0F2144"/>
<path id="Vector_18" d="M162.765 38.975L164.536 25.5398H167.464L171.621 32.4682C172.067 33.2283 172.384 33.8006 172.575 34.185C172.751 34.5384 172.905 34.9031 173.034 35.2766C173.058 34.6403 173.09 34.0786 173.125 33.5972C173.161 33.1157 173.2 32.7257 173.235 32.444L174.168 25.5398H176.812L175.03 38.975H172.306L167.68 31.1564C167.393 30.6787 167.16 30.2608 166.982 29.8988C166.815 29.5607 166.665 29.2144 166.533 28.8613V29.2942C166.533 29.7513 166.521 30.1955 166.495 30.6246C166.469 31.0538 166.436 31.4569 166.385 31.8357L165.385 38.975H162.765Z" fill="#0F2144"/>
<path id="Vector_19" d="M29.4865 42.6232C28.8443 42.8928 28.1516 43.0211 27.4555 42.9992C26.7594 42.9773 26.0761 42.8058 25.4522 42.4963L7.47517 33.5712C6.8762 33.2185 6.40551 32.6837 6.13165 32.0449C5.95386 31.6174 5.87109 31.1565 5.88907 30.6939V22.8567C6.98892 24.2093 8.40624 25.269 10.0148 25.9412C18.3987 30.1266 24.5285 33.129 25.663 33.6701C26.211 33.9436 26.8107 34.0976 27.4227 34.1217C27.9224 34.1271 28.4197 34.0509 28.8949 33.8959C29.7496 33.6571 30.2496 33.3641 31.7275 32.5785C32.2444 32.3042 32.7669 32.043 33.28 31.765C34.6833 31.0018 35.8644 30.4121 38.1913 29.2515C40.9231 27.8893 43.5617 26.3424 46.3252 25.053C47.2338 24.6395 47.9905 23.9525 48.4897 23.0881L48.6334 23.4949C48.6334 23.4949 48.7902 23.9408 48.7902 23.9427V31.151C48.6794 31.552 48.5163 31.9366 48.305 32.2949C47.8749 33.0151 47.2662 33.6121 46.5379 34.0284L29.4865 42.6232Z" fill="#3261AD"/>
<path id="Vector_20" d="M5.94506 22.4387C4.93369 21.9424 3.90926 21.4684 2.90909 20.9459C1.00577 19.942 0 18.3466 0 16.1839C0 14.0212 1.00764 12.4221 2.91469 11.4238C5.51402 10.0616 8.13947 8.73673 10.7519 7.39508C15.0835 5.16832 19.4169 2.93846 23.7523 0.705484C25.5511 -0.227513 27.3088 -0.227514 29.1319 0.677494C36.4815 4.35102 43.8403 8.00899 51.2085 11.6514C53.1977 12.6404 54.2333 14.2638 54.2221 16.4825C54.2109 18.7011 53.138 20.3003 51.1544 21.2837C50.2662 21.7259 49.3668 22.1458 48.4711 22.575C47.8012 21.6923 47.0511 20.9403 46.0154 20.4347C40.4958 17.7364 34.9918 15.0077 29.5033 12.2485C27.8705 11.4275 26.3404 11.4704 24.73 12.2821C19.2254 15.0625 13.7001 17.8055 8.18426 20.5615C7.8801 20.7127 7.6114 20.9254 7.3203 21.0859C6.72691 21.4087 6.56084 22.1551 5.94506 22.4387Z" fill="#0F2144"/>
<path id="Vector_21" d="M25.1648 11.8079C25.8067 11.5385 26.4991 11.4104 27.1949 11.4323C27.8907 11.4542 28.5736 11.6256 29.1973 11.9348L47.1836 20.8617C47.7854 21.2123 48.2589 21.7467 48.5346 22.3862C48.7131 22.8135 48.7959 23.2746 48.7772 23.7372C48.8294 27.5364 48.8518 30.3055 48.8387 30.6414C48.831 30.8035 48.8091 30.9646 48.7734 31.1228C48.7386 31.2631 48.6912 31.3999 48.6316 31.5315C48.184 30.9248 47.6625 30.3763 47.0791 29.8987C46.3397 29.316 45.5234 28.8382 44.6533 28.4787C36.2675 24.2933 30.1396 21.2928 29.0032 20.7498C28.4561 20.4759 27.8568 20.322 27.2454 20.2982C26.7451 20.2939 26.2474 20.3702 25.7713 20.524C24.9167 20.7628 24.4166 21.0558 22.9387 21.8414C22.4237 22.1157 21.9012 22.3769 21.3881 22.6549C19.9848 23.4181 18.8018 24.0078 16.4749 25.1684C13.745 26.5306 11.1064 28.0775 8.34103 29.3688C7.90712 29.5752 7.50242 29.8381 7.13746 30.1507C6.66819 30.548 6.26563 31.018 5.94509 31.5427C5.9227 31.4481 5.90404 31.3474 5.88911 31.2404C5.85386 30.9933 5.84261 30.7433 5.85552 30.494V23.2875C5.96665 22.8867 6.12976 22.5022 6.34068 22.1437C6.77191 21.4243 7.3803 20.8275 8.10778 20.4102L25.1648 11.8079Z" fill="#152F64"/>
</g>
<defs>
<clipPath id="clip0_1_1036">
<rect width="176.807" height="43" fill="white"/>
</clipPath>
</defs>
</svg>
