<svg width="16" height="16" viewBox="0 0 16 16" fill="none" xmlns="http://www.w3.org/2000/svg">
<path d="M13.7525 10.6656C13.7006 10.6031 13.6497 10.5406 13.5997 10.4803C12.9122 9.64869 12.4963 9.14682 12.4963 6.79276C12.4963 5.57401 12.2047 4.57401 11.63 3.82401C11.2063 3.26995 10.6334 2.84963 9.87845 2.53901C9.86873 2.5336 9.86005 2.52651 9.85282 2.51807C9.58126 1.6087 8.83813 0.999634 8.00001 0.999634C7.16188 0.999634 6.41907 1.6087 6.14751 2.51713C6.14026 2.52527 6.13171 2.53213 6.1222 2.53745C4.36032 3.26276 3.50407 4.65432 3.50407 6.79182C3.50407 9.14682 3.08876 9.64869 2.40064 10.4793C2.35064 10.5396 2.2997 10.6009 2.24782 10.6646C2.11382 10.8262 2.02892 11.0228 2.00317 11.2312C1.97742 11.4395 2.01189 11.6509 2.10251 11.8403C2.29532 12.2465 2.70626 12.4987 3.17532 12.4987H12.8281C13.295 12.4987 13.7031 12.2468 13.8966 11.8424C13.9876 11.653 14.0224 11.4415 13.9968 11.2329C13.9713 11.0243 13.8865 10.8274 13.7525 10.6656Z" fill="#0F2144"/>
<path d="M7.99986 14.9999C8.45143 14.9995 8.89449 14.8769 9.28204 14.6451C9.66958 14.4134 9.98717 14.081 10.2011 13.6833C10.2112 13.6643 10.2162 13.6429 10.2156 13.6214C10.215 13.5998 10.2088 13.5788 10.1977 13.5603C10.1865 13.5419 10.1708 13.5266 10.152 13.516C10.1332 13.5054 10.112 13.4999 10.0905 13.4999H5.90986C5.88828 13.4998 5.86704 13.5053 5.84822 13.5159C5.8294 13.5265 5.81363 13.5417 5.80246 13.5602C5.79129 13.5787 5.7851 13.5997 5.78448 13.6213C5.78386 13.6429 5.78883 13.6642 5.79893 13.6833C6.01284 14.0809 6.33038 14.4133 6.71786 14.6451C7.10535 14.8769 7.54834 14.9995 7.99986 14.9999Z" fill="#0F2144"/>
</svg>
