<svg width="16" height="17" viewBox="0 0 16 17" fill="none" xmlns="http://www.w3.org/2000/svg">
<path d="M5.49976 14.4999C6.05204 14.4999 6.49976 14.0522 6.49976 13.4999C6.49976 12.9476 6.05204 12.4999 5.49976 12.4999C4.94747 12.4999 4.49976 12.9476 4.49976 13.4999C4.49976 14.0522 4.94747 14.4999 5.49976 14.4999Z" fill="#4299E1"/>
<path d="M12.5 14.4999C13.0523 14.4999 13.5 14.0522 13.5 13.4999C13.5 12.9476 13.0523 12.4999 12.5 12.4999C11.9477 12.4999 11.5 12.9476 11.5 13.4999C11.5 14.0522 11.9477 14.4999 12.5 14.4999Z" fill="#4299E1"/>
<path d="M14.2748 4.2745C14.2045 4.18857 14.116 4.11937 14.0157 4.07191C13.9154 4.02445 13.8057 3.99993 13.6948 4.00012H4.18382L3.99226 2.91325C3.97183 2.79747 3.91126 2.6926 3.82119 2.61705C3.73113 2.5415 3.61732 2.5001 3.49976 2.50012H1.49976C1.36715 2.50012 1.23997 2.5528 1.1462 2.64657C1.05243 2.74034 0.999756 2.86751 0.999756 3.00012C0.999756 3.13273 1.05243 3.25991 1.1462 3.35368C1.23997 3.44744 1.36715 3.50012 1.49976 3.50012H3.08038L4.50726 11.587C4.52768 11.7028 4.58825 11.8076 4.67832 11.8832C4.76838 11.9587 4.88219 12.0001 4.99975 12.0001H12.9998C13.1324 12.0001 13.2595 11.9474 13.3533 11.8537C13.4471 11.7599 13.4998 11.6327 13.4998 11.5001C13.4998 11.3675 13.4471 11.2403 13.3533 11.1466C13.2595 11.0528 13.1324 11.0001 12.9998 11.0001H5.41913L5.24288 10.0001H12.7948C12.9682 9.9999 13.1361 9.93978 13.2703 9.82993C13.4045 9.72008 13.4966 9.56725 13.531 9.39731L14.431 4.89731C14.4527 4.7884 14.4499 4.67604 14.4229 4.56834C14.3959 4.46063 14.3453 4.36027 14.2748 4.2745Z" fill="#4299E1"/>
</svg>
