<svg width="13" height="13" viewBox="0 0 13 13" fill="none" xmlns="http://www.w3.org/2000/svg">
<path d="M11.911 1.18465C11.9066 1.16306 11.8961 1.14319 11.8807 1.12736C11.8654 1.11154 11.8458 1.10041 11.8244 1.0953C10.3944 0.745689 7.09049 1.99154 5.30045 3.78084C4.98118 4.09753 4.69012 4.44144 4.43058 4.80868C3.87858 4.75985 3.32658 4.80062 2.85612 5.0057C1.52872 5.58993 1.14225 7.11434 1.03458 7.7701C1.02848 7.80599 1.03078 7.84281 1.04131 7.87766C1.05185 7.91252 1.07032 7.94445 1.09529 7.97095C1.12025 7.99745 1.15102 8.0178 1.18518 8.0304C1.21934 8.04299 1.25596 8.04749 1.29215 8.04354L3.42374 7.80843C3.42527 7.96914 3.43496 8.12966 3.4528 8.28939C3.46352 8.4003 3.51276 8.50396 3.59196 8.58236L4.4174 9.40584C4.49586 9.48494 4.59948 9.53415 4.71036 9.545C4.86919 9.56277 5.02882 9.57246 5.18864 9.57405L4.95475 11.703C4.95085 11.7391 4.95538 11.7757 4.96799 11.8099C4.98061 11.844 5.00096 11.8748 5.02745 11.8997C5.05394 11.9247 5.08585 11.9431 5.12067 11.9537C5.1555 11.9642 5.1923 11.9666 5.22819 11.9605C5.88273 11.8555 7.40983 11.4691 7.99064 10.1417C8.19571 9.67122 8.23771 9.12191 8.19034 8.57259C8.55846 8.31303 8.90327 8.02189 9.22086 7.70247C11.0165 5.91585 12.2553 2.68563 11.911 1.18465ZM7.42936 5.57113C7.26539 5.40727 7.1537 5.19846 7.10843 4.97112C7.06315 4.74378 7.08631 4.50811 7.17498 4.29393C7.26366 4.07976 7.41386 3.89669 7.60659 3.76789C7.79932 3.63909 8.02592 3.57034 8.25773 3.57034C8.48953 3.57034 8.71613 3.63909 8.90886 3.76789C9.10159 3.89669 9.2518 4.07976 9.34047 4.29393C9.42914 4.50811 9.45231 4.74378 9.40703 4.97112C9.36175 5.19846 9.25006 5.40727 9.08609 5.57113C8.97737 5.68001 8.84824 5.76639 8.7061 5.82532C8.56396 5.88426 8.4116 5.91459 8.25773 5.91459C8.10385 5.91459 7.95149 5.88426 7.80935 5.82532C7.66721 5.76639 7.53808 5.68001 7.42936 5.57113Z" fill="white"/>
<path d="M4.36133 10.0023C4.22754 10.1364 4.01294 10.1886 3.75464 10.2333C3.17432 10.3322 2.66186 9.83069 2.76611 9.24402C2.80591 9.02161 2.92358 8.70984 2.99683 8.6366C3.01283 8.6209 3.02349 8.60055 3.02728 8.57845C3.03107 8.55635 3.0278 8.53362 3.01793 8.51348C3.00807 8.49335 2.99211 8.47683 2.97232 8.46628C2.95254 8.45573 2.92993 8.45168 2.90771 8.45471C2.58319 8.49442 2.28128 8.64155 2.05005 8.87268C1.47607 9.44714 1.42188 11.5787 1.42188 11.5787C1.42188 11.5787 3.55469 11.5245 4.12866 10.9501C4.36051 10.719 4.50783 10.4167 4.54687 10.0917C4.55591 9.98962 4.43164 9.92883 4.36133 10.0023Z" fill="white"/>
</svg>
