<svg width="24" height="23" viewBox="0 0 24 23" fill="none" xmlns="http://www.w3.org/2000/svg">
<path d="M13.4062 10.1057H19.5586C19.6021 10.1057 19.6438 10.123 19.6746 10.1538C19.7054 10.1845 19.7227 10.2263 19.7227 10.2698V18.5315C19.7227 19.2743 19.4276 19.9867 18.9023 20.5119C18.3771 21.0372 17.6647 21.3323 16.9219 21.3323H7.07812C6.33531 21.3323 5.62292 21.0372 5.09767 20.5119C4.57243 19.9867 4.27734 19.2743 4.27734 18.5315V4.46899C4.27734 3.72618 4.57243 3.01379 5.09767 2.48854C5.62292 1.96329 6.33531 1.66821 7.07812 1.66821H11.1211C11.1646 1.66821 11.2063 1.6855 11.2371 1.71627C11.2679 1.74703 11.2852 1.78876 11.2852 1.83228V7.98462C11.2852 8.54717 11.5086 9.08668 11.9064 9.48446C12.3042 9.88224 12.8437 10.1057 13.4062 10.1057ZM8.48437 17.137H15.5156C15.7052 17.137 15.887 17.0616 16.0211 16.9276C16.1552 16.7935 16.2305 16.6117 16.2305 16.4221C16.2305 16.2325 16.1552 16.0507 16.0211 15.9166C15.887 15.7826 15.7052 15.7073 15.5156 15.7073H8.48437C8.29479 15.7073 8.11296 15.7826 7.9789 15.9166C7.84484 16.0507 7.76953 16.2325 7.76953 16.4221C7.76953 16.6117 7.84484 16.7935 7.9789 16.9276C8.11296 17.0616 8.29479 17.137 8.48437 17.137ZM8.48437 13.6213H15.5156C15.7052 13.6213 15.887 13.546 16.0211 13.412C16.1552 13.2779 16.2305 13.0961 16.2305 12.9065C16.2305 12.7169 16.1552 12.5351 16.0211 12.401C15.887 12.267 15.7052 12.1916 15.5156 12.1916H8.48437C8.29479 12.1916 8.11296 12.267 7.9789 12.401C7.84484 12.5351 7.76953 12.7169 7.76953 12.9065C7.76953 13.0961 7.84484 13.2779 7.9789 13.412C8.11296 13.546 8.29479 13.6213 8.48437 13.6213Z" fill="white" stroke="#0F2144" stroke-width="0.0234375"/>
<path d="M12.8447 2.22747L19.1644 8.5472C19.175 8.55785 19.1822 8.5714 19.1851 8.58613C19.1881 8.60086 19.1866 8.61613 19.1808 8.63001C19.1751 8.64389 19.1654 8.65576 19.1529 8.66413C19.1404 8.67251 19.1258 8.67701 19.1107 8.67707H13.4063C13.2229 8.67707 13.047 8.60423 12.9174 8.47456C12.7877 8.3449 12.7148 8.16904 12.7148 7.98567V2.28115C12.7149 2.26614 12.7194 2.25148 12.7278 2.23902C12.7362 2.22656 12.748 2.21684 12.7619 2.2111C12.7758 2.20536 12.7911 2.20386 12.8058 2.20677C12.8205 2.20968 12.8341 2.21688 12.8447 2.22746C12.8447 2.22747 12.8447 2.22747 12.8447 2.22747Z" fill="white" stroke="#0F2144" stroke-width="0.0234375"/>
</svg>
