<svg width="25" height="9" viewBox="0 0 25 9" fill="none" xmlns="http://www.w3.org/2000/svg">
<g id="Visa Icon">
<path id="Vector" fill-rule="evenodd" clip-rule="evenodd" d="M12.6706 2.96337C12.6566 4.15042 13.6528 4.81286 14.4032 5.20672C15.1742 5.61087 15.4331 5.87001 15.4302 6.23135C15.4243 6.78446 14.8151 7.0285 14.245 7.038C13.2503 7.05462 12.672 6.74877 12.2122 6.51741L11.854 8.32329C12.3153 8.55235 13.1694 8.75204 14.0552 8.76075C16.1343 8.76075 17.4945 7.65531 17.5019 5.94133C17.51 3.76613 14.7085 3.64566 14.7276 2.67335C14.7342 2.37859 14.9954 2.06396 15.5678 1.98394C15.851 1.94356 16.633 1.91262 17.5196 2.3524L17.8675 0.605164C17.3908 0.418131 16.7779 0.239014 16.0151 0.239014C14.0581 0.239014 12.6817 1.3595 12.6706 2.96337ZM21.2113 0.389565C20.8316 0.389565 20.5116 0.628123 20.3689 0.994208L17.3989 8.63237H19.4765L19.8899 7.40171H22.4288L22.6687 8.63237H24.4998L22.9018 0.389565H21.2113ZM21.5018 2.61629L22.1014 5.71148H20.4594L21.5018 2.61629ZM10.1516 0.389565L8.51397 8.63237H10.4937L12.1306 0.389565H10.1516ZM7.22282 0.389565L5.16212 5.99991L4.32857 1.22953C4.23075 0.697065 3.84451 0.389565 3.41558 0.389565H0.0468875L-0.000213623 0.628915C0.69136 0.790549 1.47708 1.05127 1.95305 1.33021C2.24435 1.50055 2.32753 1.64952 2.42314 2.05446L4.00192 8.63237H6.09428L9.30189 0.389565H7.22282Z" fill="#4318FF"/>
</g>
</svg>
