<svg width="24" height="23" viewBox="0 0 24 23" fill="none" xmlns="http://www.w3.org/2000/svg">
<path d="M4.94644 4.81804H19.0089C19.1732 4.81797 19.3373 4.82839 19.5002 4.84924C19.445 4.46155 19.3118 4.08905 19.1088 3.75421C18.9057 3.41937 18.6369 3.12913 18.3186 2.90097C18.0003 2.67282 17.6391 2.51149 17.2568 2.4267C16.8745 2.34192 16.4789 2.33543 16.094 2.40764L4.52895 4.38211H4.51577C3.78983 4.52093 3.14427 4.93165 2.71094 5.5304C3.36379 5.06604 4.14529 4.81701 4.94644 4.81804V4.81804Z" fill="white"/>
<path d="M19.0093 5.875H4.94678C4.20111 5.87581 3.48621 6.17239 2.95894 6.69966C2.43167 7.22693 2.13509 7.94183 2.13428 8.6875V17.125C2.13509 17.8707 2.43167 18.5856 2.95894 19.1128C3.48621 19.6401 4.20111 19.9367 4.94678 19.9375H19.0093C19.7549 19.9367 20.4698 19.6401 20.9971 19.1128C21.5244 18.5856 21.821 17.8707 21.8218 17.125V8.6875C21.821 7.94183 21.5244 7.22693 20.9971 6.69966C20.4698 6.17239 19.7549 5.87581 19.0093 5.875V5.875ZM16.9219 14.3125C16.6437 14.3125 16.3719 14.23 16.1406 14.0755C15.9093 13.921 15.7291 13.7014 15.6227 13.4444C15.5162 13.1874 15.4884 12.9047 15.5426 12.6319C15.5969 12.3591 15.7308 12.1085 15.9275 11.9119C16.1242 11.7152 16.3747 11.5813 16.6475 11.527C16.9203 11.4728 17.2031 11.5006 17.46 11.607C17.717 11.7135 17.9366 11.8937 18.0911 12.125C18.2456 12.3562 18.3281 12.6281 18.3281 12.9062C18.3281 13.2792 18.18 13.6369 17.9162 13.9006C17.6525 14.1643 17.2948 14.3125 16.9219 14.3125Z" fill="white"/>
<path d="M2.15625 11.6514V7.27881C2.15625 6.32651 2.68359 4.72998 4.51392 4.38413C6.06738 4.09277 7.60547 4.09277 7.60547 4.09277C7.60547 4.09277 8.61621 4.7959 7.78125 4.7959C6.94629 4.7959 6.96826 5.87256 7.78125 5.87256C8.59424 5.87256 7.78125 6.90527 7.78125 6.90527L4.50732 10.6187L2.15625 11.6514Z" fill="white"/>
</svg>
